<svg width="58" height="58" viewBox="0 0 58 58" fill="none" xmlns="http://www.w3.org/2000/svg">
<path d="M28.9597 0C17.2387 0 7.70312 9.53554 7.70312 21.2566C7.70312 26.641 11.0958 34.2486 17.7874 43.8682C22.6784 50.9 27.4888 56.3415 27.6915 56.5698L28.9597 58L30.2284 56.5698C30.4306 56.3415 35.2411 50.9 40.1325 43.8682C46.8237 34.2486 50.2168 26.641 50.2168 21.2566C50.2168 9.53554 40.6808 0 28.9597 0ZM37.3673 41.9043C34.0614 46.6604 30.72 50.7535 28.9597 52.8417C27.2039 50.7593 23.8749 46.6816 20.5712 41.9318C14.3712 33.0188 11.094 25.8693 11.094 21.2566C11.094 11.4056 19.1087 3.39091 28.9597 3.39091C38.8112 3.39091 46.8254 11.4056 46.8254 21.2566C46.8254 25.8644 43.5549 33.0042 37.3673 41.9043Z" fill="#3C2B99"/>
<path d="M28.9595 7.85623C22.0418 7.85623 16.4141 13.484 16.4141 20.4017C16.4141 27.3194 22.0418 32.9476 28.9595 32.9476C35.8776 32.9476 41.5054 27.3194 41.5054 20.4017C41.5054 13.484 35.8776 7.85623 28.9595 7.85623ZM28.9595 29.5567C23.9119 29.5567 19.805 25.4498 19.805 20.4017C19.805 15.354 23.9119 11.2471 28.9595 11.2471C34.0076 11.2471 38.1145 15.354 38.1145 20.4017C38.1145 25.4498 34.0076 29.5567 28.9595 29.5567Z" fill="#3C2B99"/>
</svg>
