<svg width="59" height="59" viewBox="0 0 59 59" fill="none" xmlns="http://www.w3.org/2000/svg">
<path d="M54.8609 52.0583C55.0986 51.6027 55.2441 51.1047 55.2889 50.5927C55.3336 50.0808 55.2769 49.5651 55.1219 49.0751C54.9668 48.5852 54.7166 48.1307 54.3854 47.7377C54.0543 47.3448 53.6488 47.021 53.1923 46.7852L46.1676 43.2175C46.7557 42.8102 47.2424 42.2732 47.59 41.648C47.9376 41.0228 48.137 40.326 48.1726 39.6116C48.2082 38.8971 48.0792 38.184 47.7955 37.5273C47.5117 36.8706 47.0809 36.2878 46.5362 35.8241C47.158 35.4515 47.6828 34.937 48.0676 34.3226C48.4524 33.7083 48.6863 33.0116 48.7501 32.2895C48.8139 31.5675 48.7059 30.8405 48.4349 30.1682C48.1638 29.4959 47.7375 28.8973 47.1907 28.4214C48.0035 27.9149 48.629 27.1572 48.9723 26.2632C49.3157 25.3692 49.3583 24.3876 49.0935 23.4673C48.8288 22.5469 48.2712 21.738 47.5054 21.163C46.7395 20.5881 45.807 20.2785 44.8493 20.2813H33.3314C31.0829 16.173 34.5174 14.3042 33.7038 9.91555C33.2048 5.51821 27.9646 2.99457 26.7299 6.62229C25.9895 9.53655 23.2473 15.1164 21.1209 16.5586C19.4285 17.8259 17.9658 19.3736 16.796 21.1347C16.5461 21.4889 16.2144 21.7776 15.829 21.9762C15.4437 22.1747 15.0161 22.2774 14.5827 22.2754H13.552C13.4458 21.6307 13.1139 21.0448 12.6158 20.6222C12.1176 20.1995 11.4855 19.9676 10.8321 19.9678H4.60949C4.36522 19.9685 4.13115 20.0659 3.95843 20.2386C3.7857 20.4114 3.68834 20.6454 3.68761 20.8897V48.0758C3.68834 48.3201 3.7857 48.5541 3.95843 48.7268C4.13115 48.8996 4.36522 48.9969 4.60949 48.9977H10.8321C11.2236 48.9931 11.6098 48.907 11.9661 48.7447C12.3223 48.5824 12.6408 48.3475 12.9011 48.0551C13.1614 47.7627 13.3578 47.4192 13.4778 47.0465C13.5977 46.6739 13.6386 46.2803 13.5978 45.8909L17.5526 46.0292C18.064 46.0297 18.5617 46.1945 18.9723 46.4994L22.1528 48.8778C23.3028 49.7375 24.6995 50.203 26.1353 50.2053H37.4743C37.714 50.2053 50.3253 53.9573 50.3253 53.9573C51.1843 54.2116 52.1049 54.1616 52.9313 53.8155C53.7577 53.4695 54.4393 52.8488 54.8609 52.0583ZM50.8507 52.1873C50.2014 52.0672 37.7975 48.0805 37.4744 48.3616H26.1353C24.036 48.5422 21.6655 46.0894 20.0785 45.0244C19.3601 44.4854 18.4876 44.1913 17.5895 44.1855L13.5978 44.0472V24.1191C14.4837 24.2507 15.3887 24.1411 16.2175 23.8017C17.0463 23.4623 17.7683 22.9058 18.3075 22.1906C19.3492 20.6141 20.6505 19.2254 22.1562 18.0837C24.9421 16.194 27.8193 9.82101 28.517 7.07609C28.5705 6.9762 28.6496 6.89231 28.7462 6.833C28.8428 6.77368 28.9533 6.74107 29.0666 6.73849C29.84 6.94214 30.5288 7.38565 31.0343 8.00533C31.5398 8.625 31.8359 9.38895 31.88 10.1874C32.4537 14.1835 29.4598 16.0687 31.2683 20.2813H29.4079C29.1634 20.2813 28.9289 20.3784 28.7561 20.5513C28.5832 20.7241 28.4861 20.9586 28.4861 21.2031C28.4861 21.4476 28.5832 21.6821 28.7561 21.855C28.9289 22.0279 29.1634 22.125 29.4079 22.125H44.8493C45.5257 22.1301 46.1725 22.4024 46.649 22.8825C47.1254 23.3626 47.3927 24.0115 47.3927 24.6879C47.3927 25.3642 47.1254 26.0131 46.6489 26.4932C46.1725 26.9732 45.5256 27.2455 44.8493 27.2506H44.0842C43.8427 27.2552 43.6127 27.3544 43.4435 27.5268C43.2744 27.6991 43.1796 27.931 43.1796 28.1725C43.1797 28.414 43.2744 28.6459 43.4436 28.8183C43.6127 28.9907 43.8428 29.0898 44.0842 29.0944C48.0913 29.3927 47.794 34.6244 43.7061 34.8192C43.5834 34.8191 43.4619 34.8435 43.3487 34.891C43.2355 34.9384 43.1329 35.008 43.047 35.0956C42.961 35.1832 42.8934 35.2871 42.8481 35.4012C42.8028 35.5153 42.7808 35.6372 42.7832 35.76C42.7857 35.8827 42.8126 36.0037 42.8624 36.1158C42.9123 36.228 42.984 36.3291 43.0734 36.4132C43.1628 36.4973 43.268 36.5627 43.383 36.6056C43.498 36.6485 43.6204 36.668 43.7431 36.663C47.1997 36.7262 47.2063 42.0327 43.743 42.0928C43.5384 42.0974 43.3411 42.1697 43.1819 42.2983C43.0228 42.427 42.9107 42.6048 42.8633 42.8039C42.8159 43.003 42.8359 43.2122 42.92 43.3988C43.0041 43.5854 43.1477 43.7388 43.3283 43.8351L52.3534 48.4353C52.5963 48.5552 52.8123 48.7233 52.9882 48.9294C53.1641 49.1354 53.2963 49.375 53.3767 49.6338C53.4822 49.9858 53.491 50.3597 53.4021 50.7163C53.3133 51.0728 53.13 51.3989 52.8715 51.6602C52.6131 51.9214 52.2891 52.1083 51.9335 52.201C51.5779 52.2938 51.2039 52.2891 50.8507 52.1873Z" fill="#3C2B99"/>
</svg>
