<svg width="55" height="55" viewBox="0 0 55 55" fill="none" xmlns="http://www.w3.org/2000/svg">
<g clip-path="url(#clip0_70_6676)">
<path d="M49.6442 24.437C48.9454 23.7424 47.8172 23.7424 47.1185 24.437L41.7447 29.8107L44.2704 32.3364L46.402 30.2048C44.9082 41.9818 34.15 50.318 22.373 48.8242C10.5959 47.3304 2.25978 36.5722 3.75357 24.7952C5.11627 14.0525 14.2574 6.00081 25.0861 6.00495V2.42244C11.2361 2.41774 0.00470352 13.6415 1.47685e-06 27.4915C-0.00470056 41.3415 11.2191 52.5728 25.069 52.5775C37.9857 52.5819 48.7927 42.7746 50.0382 29.9182L52.4743 32.3543L55 29.8286L49.6442 24.437Z" fill="#3C2B99"/>
<path d="M25.086 18.5437V27.5C25.0832 27.9761 25.2701 28.4337 25.6054 28.7718L30.9792 34.1456L33.5049 31.6199L28.6685 26.7656V18.5437H25.086Z" fill="#3C2B99"/>
</g>
<defs>
<clipPath id="clip0_70_6676">
<rect width="55" height="55" fill="white"/>
</clipPath>
</defs>
</svg>
