<svg width="92" height="92" viewBox="0 0 92 92" fill="none" xmlns="http://www.w3.org/2000/svg">
<g clip-path="url(#clip0_238_69)">
<path d="M46 45.2812C29.7852 45.2812 14.5547 67.1401 14.5547 80.3203C14.5547 86.8697 22.0529 92 31.625 92C35.2252 92 37.6388 91.2042 39.7683 90.5021C41.7171 89.8596 43.4003 89.3047 46 89.3047C48.5997 89.3047 50.2829 89.8596 52.2317 90.5021C54.3612 91.2042 56.7748 92 60.375 92C69.9471 92 77.4453 86.8697 77.4453 80.3203C77.4453 67.1401 62.2146 45.2812 46 45.2812Z" fill="white"/>
<path d="M29.8281 0C22.2712 0 16.3516 9.07673 16.3516 20.6641C16.3516 32.2514 22.2712 41.3281 29.8281 41.3281C37.3851 41.3281 43.3047 32.2514 43.3047 20.6641C43.3047 9.07673 37.3851 0 29.8281 0Z" fill="white"/>
<path d="M62.1719 0C54.6149 0 48.6953 9.07673 48.6953 20.6641C48.6953 32.2514 54.6149 41.3281 62.1719 41.3281C69.7288 41.3281 75.6484 32.2514 75.6484 20.6641C75.6484 9.07673 69.7288 0 62.1719 0Z" fill="white"/>
<path d="M19.4679 41.9022C15.4465 34.9959 8.78405 32.5238 4.17093 35.1726C-0.487107 37.8469 -1.45814 44.9222 2.35034 51.785C6.18056 58.6866 13.2164 61.0941 17.6475 58.5147C22.1767 55.878 23.4586 48.7557 19.4679 41.9022Z" fill="white"/>
<path d="M87.8287 35.1726C83.2156 32.5238 76.5532 34.9959 72.5318 41.9022C68.5411 48.7557 69.823 55.878 74.3522 58.5147C78.7833 61.0943 85.8191 58.6868 89.6491 51.785C93.4578 44.9222 92.4866 37.847 87.8287 35.1726Z" fill="white"/>
</g>
<defs>
<clipPath id="clip0_238_69">
<rect width="92" height="92" fill="white"/>
</clipPath>
</defs>
</svg>
