<svg width="488" height="227" viewBox="0 0 488 227" fill="none" xmlns="http://www.w3.org/2000/svg">
<g clip-path="url(#clip0_46_23)">
<path d="M432.415 54.5034C421.165 46.3652 399.627 53.8868 393.012 63.0313C389.725 67.5753 392.352 74.898 398.994 79.7022C401.491 81.5091 403.565 82.1683 405.395 82.75C407.07 83.2823 408.516 83.7421 410.32 85.0469C412.123 86.3517 413.013 87.5814 414.042 89.0054C415.167 90.5612 416.443 92.3247 418.94 94.1317C425.582 98.9359 433.359 99.1398 436.646 94.5958C443.261 85.4513 443.665 62.6414 432.415 54.5034Z" fill="black"/>
<path d="M443.921 14.9706C438.678 11.1778 430.016 14.5042 424.2 22.5435C418.384 30.5828 417.936 39.8513 423.179 43.6441C428.422 47.4369 437.085 44.1105 442.9 36.0712C448.716 28.0319 449.164 18.7634 443.921 14.9706Z" fill="black"/>
<path d="M466.362 31.2038C461.119 27.411 452.456 30.7374 446.64 38.7767C440.825 46.816 440.376 56.0845 445.619 59.8773C450.862 63.6701 459.525 60.3437 465.34 52.3043C471.156 44.265 471.605 34.9966 466.362 31.2038Z" fill="black"/>
<path d="M415.703 38.8424C416.379 32.0325 412.998 26.9735 408.468 26.4959C403.894 26.0135 399.669 30.435 398.867 37.1079C398.06 43.8186 401.734 49.0202 406.102 49.4545C410.568 49.8983 415.032 45.6003 415.703 38.8424Z" fill="black"/>
<path d="M466.51 68.4834C464.639 64.3304 458.775 62.7017 452.519 65.475C446.311 68.227 443.625 73.8118 445.444 77.9144C447.224 81.9281 453.314 83.789 459.435 80.9228C465.522 78.0729 468.399 72.6767 466.51 68.4834Z" fill="black"/>
</g>
<g clip-path="url(#clip1_46_23)">
<path d="M55.3627 171.503C44.1128 163.365 22.5751 170.887 15.96 180.031C12.6728 184.575 15.3002 191.898 21.9414 196.702C24.4392 198.509 26.5132 199.168 28.343 199.75C30.0176 200.282 31.4639 200.742 33.2676 202.047C35.0712 203.352 35.9605 204.581 36.9902 206.005C38.1152 207.561 39.3904 209.325 41.8882 211.132C48.5294 215.936 56.3065 216.14 59.5936 211.596C66.2087 202.451 66.6125 179.641 55.3627 171.503Z" fill="black"/>
<path d="M66.8691 131.971C61.6261 128.178 52.9635 131.504 47.1478 139.544C41.3322 147.583 40.8837 156.851 46.1267 160.644C51.3697 164.437 60.0323 161.11 65.848 153.071C71.6636 145.032 72.1121 135.763 66.8691 131.971Z" fill="black"/>
<path d="M89.3093 148.204C84.0663 144.411 75.4037 147.737 69.588 155.777C63.7724 163.816 63.3239 173.084 68.5669 176.877C73.8099 180.67 82.4725 177.344 88.2882 169.304C94.1038 161.265 94.5523 151.997 89.3093 148.204Z" fill="black"/>
<path d="M38.6509 155.842C39.3271 149.033 35.9454 143.973 31.4154 143.496C26.8414 143.013 22.6166 147.435 21.8146 154.108C21.0081 160.819 24.6813 166.02 29.0502 166.455C33.5159 166.898 37.9799 162.6 38.6509 155.842Z" fill="black"/>
<path d="M89.4576 185.483C87.5864 181.33 81.7232 179.702 75.4669 182.475C69.2585 185.227 66.5732 190.812 68.3922 194.914C70.1718 198.928 76.2616 200.789 82.3829 197.923C88.4697 195.073 91.3469 189.677 89.4576 185.483Z" fill="black"/>
</g>
<g clip-path="url(#clip2_46_23)">
<path d="M190.228 135.503C178.978 127.365 157.44 134.887 150.825 144.031C147.538 148.575 150.165 155.898 156.806 160.702C159.304 162.509 161.378 163.168 163.208 163.75C164.883 164.282 166.329 164.742 168.133 166.047C169.936 167.352 170.826 168.581 171.855 170.005C172.98 171.561 174.255 173.325 176.753 175.132C183.394 179.936 191.171 180.14 194.459 175.596C201.074 166.451 201.477 143.641 190.228 135.503Z" fill="black"/>
<path d="M201.734 95.9706C196.491 92.1778 187.828 95.5042 182.013 103.544C176.197 111.583 175.749 120.851 180.992 124.644C186.235 128.437 194.897 125.11 200.713 117.071C206.529 109.032 206.977 99.7634 201.734 95.9706Z" fill="black"/>
<path d="M224.174 112.204C218.931 108.411 210.269 111.737 204.453 119.777C198.637 127.816 198.189 137.084 203.432 140.877C208.675 144.67 217.338 141.344 223.153 133.304C228.969 125.265 229.417 115.997 224.174 112.204Z" fill="black"/>
<path d="M173.516 119.842C174.192 113.033 170.81 107.973 166.28 107.496C161.706 107.013 157.482 111.435 156.68 118.108C155.873 124.819 159.546 130.02 163.915 130.455C168.381 130.898 172.845 126.6 173.516 119.842Z" fill="black"/>
<path d="M224.323 149.483C222.451 145.33 216.588 143.702 210.332 146.475C204.123 149.227 201.438 154.812 203.257 158.914C205.037 162.928 211.127 164.789 217.248 161.923C223.335 159.073 226.212 153.677 224.323 149.483Z" fill="black"/>
</g>
<g clip-path="url(#clip3_46_23)">
<path d="M325.093 132.503C313.843 124.365 292.305 131.887 285.69 141.031C282.403 145.575 285.03 152.898 291.671 157.702C294.169 159.509 296.243 160.168 298.073 160.75C299.748 161.282 301.194 161.742 302.998 163.047C304.801 164.352 305.69 165.581 306.72 167.005C307.845 168.561 309.12 170.325 311.618 172.132C318.259 176.936 326.036 177.14 329.324 172.596C335.939 163.451 336.342 140.641 325.093 132.503Z" fill="black"/>
<path d="M336.599 92.9706C331.356 89.1778 322.693 92.5042 316.878 100.544C311.062 108.583 310.614 117.851 315.857 121.644C321.1 125.437 329.762 122.11 335.578 114.071C341.394 106.032 341.842 96.7634 336.599 92.9706Z" fill="black"/>
<path d="M359.039 109.204C353.796 105.411 345.134 108.737 339.318 116.777C333.502 124.816 333.054 134.084 338.297 137.877C343.54 141.67 352.203 138.344 358.018 130.304C363.834 122.265 364.282 112.997 359.039 109.204Z" fill="black"/>
<path d="M308.381 116.842C309.057 110.033 305.675 104.973 301.145 104.496C296.571 104.013 292.347 108.435 291.545 115.108C290.738 121.819 294.411 127.02 298.78 127.455C303.246 127.898 307.71 123.6 308.381 116.842Z" fill="black"/>
<path d="M359.188 146.483C357.316 142.33 351.453 140.702 345.197 143.475C338.988 146.227 336.303 151.812 338.122 155.914C339.902 159.928 345.992 161.789 352.113 158.923C358.2 156.073 361.077 150.677 359.188 146.483Z" fill="black"/>
</g>
<defs>
<clipPath id="clip0_46_23">
<rect width="78.7801" height="78.7801" fill="white" transform="translate(423.227) rotate(35.8819)"/>
</clipPath>
<clipPath id="clip1_46_23">
<rect width="78.7801" height="78.7801" fill="white" transform="translate(46.1743 117) rotate(35.8819)"/>
</clipPath>
<clipPath id="clip2_46_23">
<rect width="78.7801" height="78.7801" fill="white" transform="translate(181.039 81) rotate(35.8819)"/>
</clipPath>
<clipPath id="clip3_46_23">
<rect width="78.7801" height="78.7801" fill="white" transform="translate(315.904 78) rotate(35.8819)"/>
</clipPath>
</defs>
</svg>
